<svg xmlns="http://www.w3.org/2000/svg" width="288" height="330" viewBox="0 0 288 330" role="img" aria-label="Sales Call Insight">
<style>
.s{font-family:-apple-system,BlinkMacSystemFont,'Segoe UI','Inter',Helvetica,Arial,sans-serif} .m{font-family:'JetBrains Mono','Fira Code',ui-monospace,SFMono-Regular,Menlo,Consolas,monospace}

</style>
<defs>
<linearGradient id="bg" x1="0" y1="0" x2="1" y2="1"><stop offset="0" stop-color="#07111f"/><stop offset="1" stop-color="#0b1830"/></linearGradient>
<linearGradient id="brand" x1="0" y1="0" x2="1" y2="0"><stop offset="0" stop-color="#263FB0"/><stop offset="1" stop-color="#3FB4F3"/></linearGradient>
<radialGradient id="glowA" cx=".85" cy=".1" r=".6"><stop offset="0" stop-color="#263FB0" stop-opacity=".45"/><stop offset="1" stop-color="#263FB0" stop-opacity="0"/></radialGradient>
<radialGradient id="glowB" cx=".1" cy="1" r=".5"><stop offset="0" stop-color="#3FB4F3" stop-opacity=".16"/><stop offset="1" stop-color="#3FB4F3" stop-opacity="0"/></radialGradient>
<pattern id="grid" width="28" height="28" patternUnits="userSpaceOnUse"><path d="M28 0H0V28" fill="none" stroke="#fff" stroke-opacity=".045"/></pattern>
</defs>
<rect width="288" height="330" rx="16" fill="url(#bg)"/><rect width="288" height="330" rx="16" fill="url(#grid)"/><rect width="288" height="330" rx="16" fill="url(#glowA)"/><rect width="288" height="330" rx="16" fill="url(#glowB)"/><rect x=".5" y=".5" width="287" height="329" rx="16" fill="none" stroke="#16264a"/>
<text x="22" y="36" class="m" font-size="11" letter-spacing="1.2" fill="#52628A">DEPLOY #1</text>
<g transform="translate(266,25)"><text x="0" y="11" text-anchor="end" class="m" font-size="11" fill="#3FB4F3">production</text><circle cx="-77.0" cy="7" r="3.5" fill="#3FB4F3"/></g>
<text x="22" y="72" class="s" font-size="19" font-weight="700" fill="#E6ECFA">Sales Call Insight</text>
<text x="22" y="100" class="s" font-size="12.5" fill="#8A9BC4">AI-контроль качества звонков</text>
<text x="22" y="118" class="s" font-size="12.5" fill="#8A9BC4">для отделов продаж МСБ.</text>
<text x="22" y="136" class="s" font-size="12.5" fill="#8A9BC4">Скрипты оценки, RBAC, KPI.</text>
<rect x="14" y="170" width="260" height="94" rx="12" fill="#152360" fill-opacity=".45" stroke="#263FB0" stroke-opacity=".5"/>
<text x="30" y="192" class="m" font-size="10.5" letter-spacing="1.2" fill="#8A9BC4">SAAS · РЕЗУЛЬТАТ</text>
<text x="30" y="228" class="s" font-size="32" font-weight="800" fill="#3FB4F3" letter-spacing="-.5">200 звонков</text>
<text x="30" y="250" class="s" font-size="12" fill="#E6ECFA">в одном batch-прогоне</text>
<rect x="22" y="283" width="49.0" height="20" rx="10" fill="none" stroke="#16264a"/><text x="46.5" y="297" text-anchor="middle" class="m" font-size="11" fill="#8A9BC4">React</text>
<rect x="77.0" y="283" width="29.2" height="20" rx="10" fill="none" stroke="#16264a"/><text x="91.6" y="297" text-anchor="middle" class="m" font-size="11" fill="#8A9BC4">TS</text>
<rect x="112.2" y="283" width="42.4" height="20" rx="10" fill="none" stroke="#16264a"/><text x="133.4" y="297" text-anchor="middle" class="m" font-size="11" fill="#8A9BC4">Node</text>
<rect x="160.6" y="283" width="82.0" height="20" rx="10" fill="none" stroke="#16264a"/><text x="201.6" y="297" text-anchor="middle" class="m" font-size="11" fill="#8A9BC4">PostgreSQL</text>
</svg>