<svg xmlns="http://www.w3.org/2000/svg" width="880" height="340" viewBox="0 0 880 340" role="img" aria-label="Стек: OpenAI, YandexGPT, React, TypeScript, Node.js, Python, PostgreSQL, Redis">
<style>
.s{font-family:-apple-system,BlinkMacSystemFont,'Segoe UI','Inter',Helvetica,Arial,sans-serif} .m{font-family:'JetBrains Mono','Fira Code',ui-monospace,SFMono-Regular,Menlo,Consolas,monospace}

</style>
<defs>
<linearGradient id="bg" x1="0" y1="0" x2="1" y2="1"><stop offset="0" stop-color="#07111f"/><stop offset="1" stop-color="#0b1830"/></linearGradient>
<linearGradient id="brand" x1="0" y1="0" x2="1" y2="0"><stop offset="0" stop-color="#263FB0"/><stop offset="1" stop-color="#3FB4F3"/></linearGradient>
<radialGradient id="glowA" cx=".85" cy=".1" r=".6"><stop offset="0" stop-color="#263FB0" stop-opacity=".45"/><stop offset="1" stop-color="#263FB0" stop-opacity="0"/></radialGradient>
<radialGradient id="glowB" cx=".1" cy="1" r=".5"><stop offset="0" stop-color="#3FB4F3" stop-opacity=".16"/><stop offset="1" stop-color="#3FB4F3" stop-opacity="0"/></radialGradient>
<pattern id="grid" width="28" height="28" patternUnits="userSpaceOnUse"><path d="M28 0H0V28" fill="none" stroke="#fff" stroke-opacity=".045"/></pattern>
</defs>
<rect width="880" height="340" rx="18" fill="url(#bg)"/><rect width="880" height="340" rx="18" fill="url(#grid)"/><rect width="880" height="340" rx="18" fill="url(#glowA)"/><rect width="880" height="340" rx="18" fill="url(#glowB)"/><rect x=".5" y=".5" width="879" height="339" rx="18" fill="none" stroke="#16264a"/>
<text x="36" y="44" class="m" font-size="12" letter-spacing="1.5" fill="#8A9BC4"><tspan fill="#3FB4F3">04 //</tspan> СТЕК ПО СЛОЯМ АРХИТЕКТУРЫ</text>
<rect x="24" y="70" width="832" height="40" rx="10" fill="#0a1628" fill-opacity=".7" stroke="#16264a"/>
<rect x="24" y="80" width="3" height="20" rx="1.5" fill="#3FB4F3"/>
<text x="42" y="95" class="m" font-size="12" letter-spacing="1" fill="#3FB4F3">AI-СЛОЙ</text>
<rect x="170" y="78" width="96.0" height="24" rx="12" fill="#3FB4F3" fill-opacity=".10" stroke="#3FB4F3" stroke-opacity=".35"/><text x="218.0" y="94.5" text-anchor="middle" class="m" font-size="12.5" fill="#E6ECFA">OpenAI API</text>
<rect x="274.0" y="78" width="88.60000000000001" height="24" rx="12" fill="#3FB4F3" fill-opacity=".10" stroke="#3FB4F3" stroke-opacity=".35"/><text x="318.3" y="94.5" text-anchor="middle" class="m" font-size="12.5" fill="#E6ECFA">YandexGPT</text>
<rect x="370.6" y="78" width="88.60000000000001" height="24" rx="12" fill="#3FB4F3" fill-opacity=".10" stroke="#3FB4F3" stroke-opacity=".35"/><text x="414.90000000000003" y="94.5" text-anchor="middle" class="m" font-size="12.5" fill="#E6ECFA">SpeechKit</text>
<rect x="467.20000000000005" y="78" width="44.2" height="24" rx="12" fill="#3FB4F3" fill-opacity=".10" stroke="#3FB4F3" stroke-opacity=".35"/><text x="489.30000000000007" y="94.5" text-anchor="middle" class="m" font-size="12.5" fill="#E6ECFA">RAG</text>
<rect x="519.4000000000001" y="78" width="44.2" height="24" rx="12" fill="#3FB4F3" fill-opacity=".10" stroke="#3FB4F3" stroke-opacity=".35"/><text x="541.5000000000001" y="94.5" text-anchor="middle" class="m" font-size="12.5" fill="#E6ECFA">MCP</text>
<rect x="571.6000000000001" y="78" width="88.60000000000001" height="24" rx="12" fill="#3FB4F3" fill-opacity=".10" stroke="#3FB4F3" stroke-opacity=".35"/><text x="615.9000000000001" y="94.5" text-anchor="middle" class="m" font-size="12.5" fill="#E6ECFA">AI-агенты</text>
<rect x="24" y="120" width="832" height="40" rx="10" fill="#0a1628" fill-opacity=".7" stroke="#16264a"/>
<rect x="24" y="130" width="3" height="20" rx="1.5" fill="#5B74F0"/>
<text x="42" y="145" class="m" font-size="12" letter-spacing="1" fill="#5B74F0">ПРОДУКТ</text>
<rect x="170" y="128" width="59.0" height="24" rx="12" fill="#5B74F0" fill-opacity=".10" stroke="#5B74F0" stroke-opacity=".35"/><text x="199.5" y="144.5" text-anchor="middle" class="m" font-size="12.5" fill="#E6ECFA">React</text>
<rect x="237.0" y="128" width="96.0" height="24" rx="12" fill="#5B74F0" fill-opacity=".10" stroke="#5B74F0" stroke-opacity=".35"/><text x="285.0" y="144.5" text-anchor="middle" class="m" font-size="12.5" fill="#E6ECFA">TypeScript</text>
<rect x="341.0" y="128" width="51.6" height="24" rx="12" fill="#5B74F0" fill-opacity=".10" stroke="#5B74F0" stroke-opacity=".35"/><text x="366.8" y="144.5" text-anchor="middle" class="m" font-size="12.5" fill="#E6ECFA">Vite</text>
<rect x="400.6" y="128" width="110.80000000000001" height="24" rx="12" fill="#5B74F0" fill-opacity=".10" stroke="#5B74F0" stroke-opacity=".35"/><text x="456.0" y="144.5" text-anchor="middle" class="m" font-size="12.5" fill="#E6ECFA">Tailwind CSS</text>
<rect x="24" y="170" width="832" height="40" rx="10" fill="#0a1628" fill-opacity=".7" stroke="#16264a"/>
<rect x="24" y="180" width="3" height="20" rx="1.5" fill="#5B74F0"/>
<text x="42" y="195" class="m" font-size="12" letter-spacing="1" fill="#5B74F0">BACKEND</text>
<rect x="170" y="178" width="73.80000000000001" height="24" rx="12" fill="#5B74F0" fill-opacity=".10" stroke="#5B74F0" stroke-opacity=".35"/><text x="206.9" y="194.5" text-anchor="middle" class="m" font-size="12.5" fill="#E6ECFA">Node.js</text>
<rect x="251.8" y="178" width="73.80000000000001" height="24" rx="12" fill="#5B74F0" fill-opacity=".10" stroke="#5B74F0" stroke-opacity=".35"/><text x="288.70000000000005" y="194.5" text-anchor="middle" class="m" font-size="12.5" fill="#E6ECFA">Express</text>
<rect x="333.6" y="178" width="66.4" height="24" rx="12" fill="#5B74F0" fill-opacity=".10" stroke="#5B74F0" stroke-opacity=".35"/><text x="366.8" y="194.5" text-anchor="middle" class="m" font-size="12.5" fill="#E6ECFA">Python</text>
<rect x="408.0" y="178" width="66.4" height="24" rx="12" fill="#5B74F0" fill-opacity=".10" stroke="#5B74F0" stroke-opacity=".35"/><text x="441.2" y="194.5" text-anchor="middle" class="m" font-size="12.5" fill="#E6ECFA">BullMQ</text>
<rect x="482.4" y="178" width="88.60000000000001" height="24" rx="12" fill="#5B74F0" fill-opacity=".10" stroke="#5B74F0" stroke-opacity=".35"/><text x="526.6999999999999" y="194.5" text-anchor="middle" class="m" font-size="12.5" fill="#E6ECFA">Puppeteer</text>
<rect x="579.0" y="178" width="140.4" height="24" rx="12" fill="#5B74F0" fill-opacity=".10" stroke="#5B74F0" stroke-opacity=".35"/><text x="649.2" y="194.5" text-anchor="middle" class="m" font-size="12.5" fill="#E6ECFA">Telegram Bot API</text>
<rect x="24" y="220" width="832" height="40" rx="10" fill="#0a1628" fill-opacity=".7" stroke="#16264a"/>
<rect x="24" y="230" width="3" height="20" rx="1.5" fill="#263FB0"/>
<text x="42" y="245" class="m" font-size="12" letter-spacing="1" fill="#263FB0">ДАННЫЕ</text>
<rect x="170" y="228" width="96.0" height="24" rx="12" fill="#263FB0" fill-opacity=".10" stroke="#263FB0" stroke-opacity=".35"/><text x="218.0" y="244.5" text-anchor="middle" class="m" font-size="12.5" fill="#E6ECFA">PostgreSQL</text>
<rect x="274.0" y="228" width="59.0" height="24" rx="12" fill="#263FB0" fill-opacity=".10" stroke="#263FB0" stroke-opacity=".35"/><text x="303.5" y="244.5" text-anchor="middle" class="m" font-size="12.5" fill="#E6ECFA">Redis</text>
<rect x="24" y="270" width="832" height="40" rx="10" fill="#0a1628" fill-opacity=".7" stroke="#16264a"/>
<rect x="24" y="280" width="3" height="20" rx="1.5" fill="#52628A"/>
<text x="42" y="295" class="m" font-size="12" letter-spacing="1" fill="#52628A">ДЛЯ ДУШИ</text>
<rect x="170" y="278" width="59.0" height="24" rx="12" fill="#52628A" fill-opacity=".10" stroke="#52628A" stroke-opacity=".35"/><text x="199.5" y="294.5" text-anchor="middle" class="m" font-size="12.5" fill="#E6ECFA">Godot</text>
<rect x="237.0" y="278" width="36.8" height="24" rx="12" fill="#52628A" fill-opacity=".10" stroke="#52628A" stroke-opacity=".35"/><text x="255.4" y="294.5" text-anchor="middle" class="m" font-size="12.5" fill="#E6ECFA">C#</text>
<rect x="281.8" y="278" width="73.80000000000001" height="24" rx="12" fill="#52628A" fill-opacity=".10" stroke="#52628A" stroke-opacity=".35"/><text x="318.70000000000005" y="294.5" text-anchor="middle" class="m" font-size="12.5" fill="#E6ECFA">Blender</text>
</svg>